<svg width="145" height="150" viewBox="0 0 145 150" fill="none" xmlns="http://www.w3.org/2000/svg">
<path d="M70.3203 9.43997C73.6508 12.0066 76.3056 14.6533 78.2846 17.38C88.5579 31.5266 90.5242 46.9166 84.1834 63.55C84.1537 63.6291 84.1058 63.6995 84.0439 63.7549C83.982 63.8103 83.908 63.8491 83.8284 63.8678C83.7488 63.8866 83.6659 63.8847 83.5871 63.8624C83.5083 63.8401 83.436 63.7981 83.3764 63.74C73.148 53.8466 61.4881 48.36 48.3967 47.28C41.9343 46.74 35.5999 47.4033 29.3937 49.27C20.3437 51.9966 12.3441 56.8333 5.39493 63.78C5.33431 63.8391 5.26086 63.8822 5.18099 63.9056C5.10111 63.929 5.01725 63.932 4.9367 63.9142C4.85616 63.8965 4.78138 63.8585 4.71891 63.8038C4.65644 63.749 4.60818 63.679 4.57832 63.6C0.261496 52.2066 -0.0843641 41.2033 3.54075 30.59C5.72478 24.19 9.08729 18.5866 13.6283 13.78C18.5472 8.56663 24.3691 4.83663 31.0941 2.58997C37.4477 0.476633 43.7692 -0.153366 50.0587 0.699967C57.2961 1.68663 64.05 4.59997 70.3203 9.43997Z" fill="#FACC15"/>
<path d="M99.4781 39.7C98.1587 26.42 92.926 14.84 83.78 4.96001C83.728 4.90497 83.6903 4.83733 83.67 4.76305C83.6497 4.68876 83.6475 4.61012 83.6636 4.53404C83.6798 4.45797 83.7137 4.38679 83.7625 4.3268C83.8113 4.26681 83.8733 4.21983 83.9433 4.19001C99.1162 -2.18999 113.258 -0.619985 126.369 8.90002C135.598 15.6 141.413 24.78 143.815 36.44C145.173 43.0267 145.103 49.4867 143.604 55.82C141.247 65.7267 136.565 73.7367 129.558 79.85C124.639 84.15 119.01 87.22 112.669 89.06C103.254 91.7933 93.8291 91.0934 84.3948 86.96C84.2873 86.913 84.1921 86.8399 84.1173 86.7468C84.0425 86.6537 83.9902 86.5433 83.9648 86.4248C83.9394 86.3063 83.9416 86.1832 83.9713 86.0658C84.001 85.9484 84.0573 85.8401 84.1354 85.75C91.0782 77.87 95.7409 69.13 98.1235 59.53C99.7055 53.1567 100.157 46.5467 99.4781 39.7Z" fill="#FACC15"/>
<path d="M48.3486 150H40.4226C22.1882 147.26 9.89741 137.24 3.55027 119.94C0.335062 111.167 0.0756705 101.853 2.77209 92C4.76398 84.7267 8.31223 78.4333 13.4168 73.12C17.9835 68.36 23.3283 64.7833 29.4512 62.39C39.8526 58.3367 50.6735 58.66 61.9139 63.36C61.9948 63.3943 62.0663 63.4489 62.122 63.519C62.1777 63.5891 62.2158 63.6724 62.2329 63.7616C62.2501 63.8508 62.2457 63.943 62.2202 64.0299C62.1947 64.1169 62.1489 64.196 62.0868 64.26C57.5138 68.9533 53.8599 74.4633 51.125 80.79C44.7074 95.6433 44.3232 110.683 49.9722 125.91C52.6558 133.143 56.6748 139.61 62.0292 145.31C62.095 145.381 62.1432 145.467 62.1693 145.562C62.1953 145.657 62.1985 145.756 62.1784 145.852C62.1584 145.947 62.1157 146.035 62.0544 146.108C61.9931 146.182 61.9151 146.237 61.8274 146.27C57.517 147.923 53.0241 149.167 48.3486 150Z" fill="#FACC15"/>
<path d="M105.271 150H97.3453C84.8047 148.193 74.8997 142.547 67.6303 133.06C63.5376 127.713 60.7227 121.79 59.1856 115.29C56.9503 105.843 57.7285 96.3966 61.5201 86.95C61.5628 86.842 61.63 86.7464 61.7161 86.6714C61.8022 86.5965 61.9045 86.5445 62.0141 86.5199C62.1238 86.4953 62.2376 86.4988 62.3457 86.5302C62.4538 86.5616 62.5529 86.6198 62.6345 86.7C73.1256 96.9666 85.2018 102.42 98.8632 103.06C105.435 103.367 111.75 102.537 117.809 100.57C126.276 97.83 133.789 93.1166 140.347 86.43C140.399 86.3766 140.462 86.3372 140.531 86.3153C140.601 86.2934 140.675 86.2898 140.746 86.3046C140.817 86.3194 140.884 86.3523 140.94 86.4003C140.996 86.4484 141.04 86.5101 141.068 86.58C146.031 99.3667 146.018 111.517 141.029 123.03C138.326 129.257 134.538 134.563 129.664 138.95C122.894 145.05 114.763 148.733 105.271 150Z" fill="#FACC15"/>
</svg>
